<mxfile host="app.diagrams.net" agent="Mozilla/5.0 (Windows NT 10.0; Win64; x64) AppleWebKit/537.36 (KHTML, like Gecko) Chrome/128.0.0.0 Safari/537.36 OPR/114.0.0.0" version="24.7.17">
  <diagram id="R2lEEEUBdFMjLlhIrx00" name="Page-1">
    <mxGraphModel dx="2990" dy="2274" grid="1" gridSize="10" guides="1" tooltips="1" connect="1" arrows="1" fold="1" page="1" pageScale="1" pageWidth="850" pageHeight="1100" math="0" shadow="0" extFonts="Permanent Marker^https://fonts.googleapis.com/css?family=Permanent+Marker">
      <root>
        <mxCell id="0" />
        <mxCell id="1" parent="0" />
        <mxCell id="rxMDEduAaEeOasgBpTJK-5" style="edgeStyle=orthogonalEdgeStyle;rounded=0;orthogonalLoop=1;jettySize=auto;html=1;" parent="1" target="rxMDEduAaEeOasgBpTJK-4" edge="1" source="LQaVwW1T5oUffvL5DdlT-1">
          <mxGeometry relative="1" as="geometry">
            <mxPoint x="-530" y="290.00000000000045" as="sourcePoint" />
            <mxPoint x="-360" y="-80" as="targetPoint" />
            <Array as="points">
              <mxPoint x="-560" y="290" />
              <mxPoint x="-560" y="-80" />
            </Array>
          </mxGeometry>
        </mxCell>
        <mxCell id="LQaVwW1T5oUffvL5DdlT-1" value="Productos" style="whiteSpace=wrap;html=1;align=center;fillColor=#dae8fc;strokeColor=#6c8ebf;" parent="1" vertex="1">
          <mxGeometry x="-500" y="270" width="100" height="40" as="geometry" />
        </mxCell>
        <mxCell id="rxMDEduAaEeOasgBpTJK-11" style="edgeStyle=orthogonalEdgeStyle;rounded=0;orthogonalLoop=1;jettySize=auto;html=1;" parent="1" source="LQaVwW1T5oUffvL5DdlT-2" target="LQaVwW1T5oUffvL5DdlT-21" edge="1">
          <mxGeometry relative="1" as="geometry">
            <mxPoint x="190" y="230" as="targetPoint" />
            <Array as="points">
              <mxPoint x="-290" y="-40" />
              <mxPoint x="500" y="-40" />
            </Array>
          </mxGeometry>
        </mxCell>
        <mxCell id="LQaVwW1T5oUffvL5DdlT-2" value="Empleado" style="whiteSpace=wrap;html=1;align=center;fillColor=#dae8fc;strokeColor=#6c8ebf;" parent="1" vertex="1">
          <mxGeometry x="-340" y="180" width="100" height="40" as="geometry" />
        </mxCell>
        <mxCell id="rxMDEduAaEeOasgBpTJK-24" style="edgeStyle=orthogonalEdgeStyle;rounded=0;orthogonalLoop=1;jettySize=auto;html=1;exitX=0;exitY=0.5;exitDx=0;exitDy=0;" parent="1" source="LQaVwW1T5oUffvL5DdlT-3" target="rxMDEduAaEeOasgBpTJK-22" edge="1">
          <mxGeometry relative="1" as="geometry">
            <Array as="points">
              <mxPoint x="300" y="210" />
              <mxPoint x="180" y="210" />
              <mxPoint x="180" y="355" />
              <mxPoint x="15" y="355" />
            </Array>
          </mxGeometry>
        </mxCell>
        <mxCell id="LQaVwW1T5oUffvL5DdlT-3" value="Servicio" style="whiteSpace=wrap;html=1;align=center;fillColor=#dae8fc;strokeColor=#6c8ebf;" parent="1" vertex="1">
          <mxGeometry x="300" y="180" width="100" height="40" as="geometry" />
        </mxCell>
        <mxCell id="LQaVwW1T5oUffvL5DdlT-4" value="Taller" style="whiteSpace=wrap;html=1;align=center;fillColor=#dae8fc;strokeColor=#6c8ebf;" parent="1" vertex="1">
          <mxGeometry x="-180" y="270" width="100" height="40" as="geometry" />
        </mxCell>
        <mxCell id="LQaVwW1T5oUffvL5DdlT-28" style="edgeStyle=orthogonalEdgeStyle;rounded=0;orthogonalLoop=1;jettySize=auto;html=1;endArrow=none;endFill=0;" parent="1" source="LQaVwW1T5oUffvL5DdlT-6" target="LQaVwW1T5oUffvL5DdlT-27" edge="1">
          <mxGeometry relative="1" as="geometry" />
        </mxCell>
        <mxCell id="LQaVwW1T5oUffvL5DdlT-6" value="Tienda" style="whiteSpace=wrap;html=1;align=center;fillColor=#dae8fc;strokeColor=#6c8ebf;" parent="1" vertex="1">
          <mxGeometry x="-20" y="180" width="100" height="40" as="geometry" />
        </mxCell>
        <mxCell id="LQaVwW1T5oUffvL5DdlT-7" value="Cliente" style="whiteSpace=wrap;html=1;align=center;fillColor=#dae8fc;strokeColor=#6c8ebf;" parent="1" vertex="1">
          <mxGeometry x="450" y="270" width="100" height="40" as="geometry" />
        </mxCell>
        <mxCell id="LQaVwW1T5oUffvL5DdlT-8" value="Proveedor" style="whiteSpace=wrap;html=1;align=center;fillColor=#dae8fc;strokeColor=#6c8ebf;" parent="1" vertex="1">
          <mxGeometry x="450" y="560" width="100" height="40" as="geometry" />
        </mxCell>
        <mxCell id="hq3NJWPH1i2uAUFbb5c7-2" style="edgeStyle=orthogonalEdgeStyle;rounded=0;orthogonalLoop=1;jettySize=auto;html=1;entryX=1;entryY=0.5;entryDx=0;entryDy=0;" edge="1" parent="1" source="LQaVwW1T5oUffvL5DdlT-10" target="LQaVwW1T5oUffvL5DdlT-6">
          <mxGeometry relative="1" as="geometry" />
        </mxCell>
        <mxCell id="LQaVwW1T5oUffvL5DdlT-10" value="Coche Nuevo" style="whiteSpace=wrap;html=1;align=center;fillColor=#dae8fc;strokeColor=#6c8ebf;" parent="1" vertex="1">
          <mxGeometry x="230" y="460" width="100" height="40" as="geometry" />
        </mxCell>
        <mxCell id="LQaVwW1T5oUffvL5DdlT-58" style="rounded=0;orthogonalLoop=1;jettySize=auto;html=1;entryX=1;entryY=0.5;entryDx=0;entryDy=0;edgeStyle=orthogonalEdgeStyle;" parent="1" source="LQaVwW1T5oUffvL5DdlT-19" target="LQaVwW1T5oUffvL5DdlT-1" edge="1">
          <mxGeometry relative="1" as="geometry">
            <mxPoint x="-490" y="320" as="targetPoint" />
            <Array as="points">
              <mxPoint x="-340" y="580" />
              <mxPoint x="-340" y="290" />
            </Array>
          </mxGeometry>
        </mxCell>
        <mxCell id="LQaVwW1T5oUffvL5DdlT-177" style="edgeStyle=orthogonalEdgeStyle;rounded=0;orthogonalLoop=1;jettySize=auto;html=1;" parent="1" source="LQaVwW1T5oUffvL5DdlT-19" target="LQaVwW1T5oUffvL5DdlT-8" edge="1">
          <mxGeometry relative="1" as="geometry" />
        </mxCell>
        <mxCell id="hq3NJWPH1i2uAUFbb5c7-1" style="edgeStyle=orthogonalEdgeStyle;rounded=0;orthogonalLoop=1;jettySize=auto;html=1;entryX=0.5;entryY=1;entryDx=0;entryDy=0;" edge="1" parent="1" source="LQaVwW1T5oUffvL5DdlT-19" target="LQaVwW1T5oUffvL5DdlT-10">
          <mxGeometry relative="1" as="geometry" />
        </mxCell>
        <mxCell id="LQaVwW1T5oUffvL5DdlT-19" value="Entrega" style="shape=rhombus;perimeter=rhombusPerimeter;whiteSpace=wrap;html=1;align=center;fillColor=#ffe6cc;strokeColor=#d79b00;" parent="1" vertex="1">
          <mxGeometry x="130" y="550" width="120" height="60" as="geometry" />
        </mxCell>
        <mxCell id="LQaVwW1T5oUffvL5DdlT-55" style="edgeStyle=orthogonalEdgeStyle;rounded=0;orthogonalLoop=1;jettySize=auto;html=1;entryX=0.5;entryY=0;entryDx=0;entryDy=0;" parent="1" source="LQaVwW1T5oUffvL5DdlT-20" target="LQaVwW1T5oUffvL5DdlT-1" edge="1">
          <mxGeometry relative="1" as="geometry" />
        </mxCell>
        <mxCell id="LQaVwW1T5oUffvL5DdlT-91" style="edgeStyle=orthogonalEdgeStyle;rounded=0;orthogonalLoop=1;jettySize=auto;html=1;entryX=0;entryY=0.5;entryDx=0;entryDy=0;" parent="1" source="LQaVwW1T5oUffvL5DdlT-20" target="LQaVwW1T5oUffvL5DdlT-2" edge="1">
          <mxGeometry relative="1" as="geometry" />
        </mxCell>
        <mxCell id="LQaVwW1T5oUffvL5DdlT-20" value="Organiza" style="shape=rhombus;perimeter=rhombusPerimeter;whiteSpace=wrap;html=1;align=center;fillColor=#ffe6cc;strokeColor=#d79b00;" parent="1" vertex="1">
          <mxGeometry x="-510" y="170" width="120" height="60" as="geometry" />
        </mxCell>
        <mxCell id="LQaVwW1T5oUffvL5DdlT-52" style="edgeStyle=orthogonalEdgeStyle;rounded=0;orthogonalLoop=1;jettySize=auto;html=1;entryX=1;entryY=0.5;entryDx=0;entryDy=0;" parent="1" source="LQaVwW1T5oUffvL5DdlT-21" target="LQaVwW1T5oUffvL5DdlT-3" edge="1">
          <mxGeometry relative="1" as="geometry" />
        </mxCell>
        <mxCell id="LQaVwW1T5oUffvL5DdlT-175" style="edgeStyle=orthogonalEdgeStyle;rounded=0;orthogonalLoop=1;jettySize=auto;html=1;entryX=0.5;entryY=0;entryDx=0;entryDy=0;" parent="1" source="LQaVwW1T5oUffvL5DdlT-21" target="LQaVwW1T5oUffvL5DdlT-7" edge="1">
          <mxGeometry relative="1" as="geometry" />
        </mxCell>
        <mxCell id="LQaVwW1T5oUffvL5DdlT-21" value="Contrata" style="shape=rhombus;perimeter=rhombusPerimeter;whiteSpace=wrap;html=1;align=center;fillColor=#ffe6cc;strokeColor=#d79b00;" parent="1" vertex="1">
          <mxGeometry x="440" y="170" width="120" height="60" as="geometry" />
        </mxCell>
        <mxCell id="LQaVwW1T5oUffvL5DdlT-47" style="edgeStyle=orthogonalEdgeStyle;rounded=0;orthogonalLoop=1;jettySize=auto;html=1;entryX=1;entryY=0.5;entryDx=0;entryDy=0;endArrow=none;endFill=0;" parent="1" source="LQaVwW1T5oUffvL5DdlT-23" target="LQaVwW1T5oUffvL5DdlT-2" edge="1">
          <mxGeometry relative="1" as="geometry" />
        </mxCell>
        <mxCell id="LQaVwW1T5oUffvL5DdlT-92" style="edgeStyle=orthogonalEdgeStyle;rounded=0;orthogonalLoop=1;jettySize=auto;html=1;entryX=0;entryY=0.5;entryDx=0;entryDy=0;" parent="1" source="LQaVwW1T5oUffvL5DdlT-23" target="LQaVwW1T5oUffvL5DdlT-6" edge="1">
          <mxGeometry relative="1" as="geometry" />
        </mxCell>
        <mxCell id="LQaVwW1T5oUffvL5DdlT-23" value="Contrata" style="shape=rhombus;perimeter=rhombusPerimeter;whiteSpace=wrap;html=1;align=center;fillColor=#ffe6cc;strokeColor=#d79b00;" parent="1" vertex="1">
          <mxGeometry x="-190" y="170" width="120" height="60" as="geometry" />
        </mxCell>
        <mxCell id="LQaVwW1T5oUffvL5DdlT-44" style="edgeStyle=orthogonalEdgeStyle;rounded=0;orthogonalLoop=1;jettySize=auto;html=1;entryX=1;entryY=0.5;entryDx=0;entryDy=0;" parent="1" source="LQaVwW1T5oUffvL5DdlT-24" edge="1" target="LQaVwW1T5oUffvL5DdlT-6">
          <mxGeometry relative="1" as="geometry">
            <mxPoint x="240" y="290" as="targetPoint" />
            <Array as="points">
              <mxPoint x="210" y="290" />
              <mxPoint x="210" y="190" />
              <mxPoint x="80" y="190" />
            </Array>
          </mxGeometry>
        </mxCell>
        <mxCell id="LQaVwW1T5oUffvL5DdlT-173" style="edgeStyle=orthogonalEdgeStyle;rounded=0;orthogonalLoop=1;jettySize=auto;html=1;entryX=0;entryY=0.5;entryDx=0;entryDy=0;" parent="1" source="LQaVwW1T5oUffvL5DdlT-24" target="LQaVwW1T5oUffvL5DdlT-7" edge="1">
          <mxGeometry relative="1" as="geometry" />
        </mxCell>
        <mxCell id="LQaVwW1T5oUffvL5DdlT-24" value="Compra en" style="shape=rhombus;perimeter=rhombusPerimeter;whiteSpace=wrap;html=1;align=center;fillColor=#ffe6cc;strokeColor=#d79b00;" parent="1" vertex="1">
          <mxGeometry x="290" y="260" width="120" height="60" as="geometry" />
        </mxCell>
        <mxCell id="LQaVwW1T5oUffvL5DdlT-53" style="edgeStyle=orthogonalEdgeStyle;rounded=0;orthogonalLoop=1;jettySize=auto;html=1;entryX=1;entryY=0.5;entryDx=0;entryDy=0;" parent="1" source="LQaVwW1T5oUffvL5DdlT-27" target="LQaVwW1T5oUffvL5DdlT-4" edge="1">
          <mxGeometry relative="1" as="geometry" />
        </mxCell>
        <mxCell id="LQaVwW1T5oUffvL5DdlT-27" value="Tiene" style="shape=rhombus;perimeter=rhombusPerimeter;whiteSpace=wrap;html=1;align=center;fillColor=#ffe6cc;strokeColor=#d79b00;" parent="1" vertex="1">
          <mxGeometry x="-30" y="260" width="120" height="60" as="geometry" />
        </mxCell>
        <mxCell id="LQaVwW1T5oUffvL5DdlT-32" value="(1,1)" style="text;html=1;align=center;verticalAlign=middle;resizable=0;points=[];autosize=1;strokeColor=none;fillColor=none;" parent="1" vertex="1">
          <mxGeometry x="20" y="220" width="50" height="30" as="geometry" />
        </mxCell>
        <mxCell id="LQaVwW1T5oUffvL5DdlT-33" value="N:M" style="text;html=1;align=center;verticalAlign=middle;resizable=0;points=[];autosize=1;strokeColor=none;fillColor=none;" parent="1" vertex="1">
          <mxGeometry x="-35" y="300" width="50" height="30" as="geometry" />
        </mxCell>
        <mxCell id="LQaVwW1T5oUffvL5DdlT-59" value="(1,n)" style="text;html=1;align=center;verticalAlign=middle;resizable=0;points=[];autosize=1;strokeColor=none;fillColor=none;" parent="1" vertex="1">
          <mxGeometry x="-380" y="170" width="50" height="30" as="geometry" />
        </mxCell>
        <mxCell id="LQaVwW1T5oUffvL5DdlT-60" value="(1,n)" style="text;html=1;align=center;verticalAlign=middle;resizable=0;points=[];autosize=1;strokeColor=none;fillColor=none;" parent="1" vertex="1">
          <mxGeometry x="-455" y="238" width="50" height="30" as="geometry" />
        </mxCell>
        <mxCell id="LQaVwW1T5oUffvL5DdlT-61" value="N:M" style="text;html=1;align=center;verticalAlign=middle;resizable=0;points=[];autosize=1;" parent="1" vertex="1">
          <mxGeometry x="-475" y="140" width="50" height="30" as="geometry" />
        </mxCell>
        <mxCell id="LQaVwW1T5oUffvL5DdlT-62" value="(1,n)" style="text;html=1;align=center;verticalAlign=middle;resizable=0;points=[];autosize=1;strokeColor=none;fillColor=none;" parent="1" vertex="1">
          <mxGeometry x="-60" y="170" width="50" height="30" as="geometry" />
        </mxCell>
        <mxCell id="LQaVwW1T5oUffvL5DdlT-63" value="(1,1)" style="text;html=1;align=center;verticalAlign=middle;resizable=0;points=[];autosize=1;strokeColor=none;fillColor=none;" parent="1" vertex="1">
          <mxGeometry x="-240" y="170" width="50" height="30" as="geometry" />
        </mxCell>
        <mxCell id="LQaVwW1T5oUffvL5DdlT-64" value="1:N" style="text;html=1;align=center;verticalAlign=middle;resizable=0;points=[];autosize=1;" parent="1" vertex="1">
          <mxGeometry x="-150" y="140" width="40" height="30" as="geometry" />
        </mxCell>
        <mxCell id="LQaVwW1T5oUffvL5DdlT-65" value="(1,n)" style="text;html=1;align=center;verticalAlign=middle;resizable=0;points=[];autosize=1;strokeColor=none;fillColor=none;" parent="1" vertex="1">
          <mxGeometry x="-80" y="260" width="50" height="30" as="geometry" />
        </mxCell>
        <mxCell id="LQaVwW1T5oUffvL5DdlT-69" style="edgeStyle=orthogonalEdgeStyle;rounded=0;orthogonalLoop=1;jettySize=auto;html=1;entryX=1;entryY=0.5;entryDx=0;entryDy=0;" parent="1" source="LQaVwW1T5oUffvL5DdlT-67" target="LQaVwW1T5oUffvL5DdlT-8" edge="1">
          <mxGeometry relative="1" as="geometry">
            <Array as="points">
              <mxPoint x="660" y="580" />
            </Array>
          </mxGeometry>
        </mxCell>
        <mxCell id="LQaVwW1T5oUffvL5DdlT-95" style="edgeStyle=orthogonalEdgeStyle;rounded=0;orthogonalLoop=1;jettySize=auto;html=1;entryX=0.5;entryY=0;entryDx=0;entryDy=0;" parent="1" source="LQaVwW1T5oUffvL5DdlT-67" target="LQaVwW1T5oUffvL5DdlT-6" edge="1">
          <mxGeometry relative="1" as="geometry">
            <Array as="points">
              <mxPoint x="660" y="60" />
              <mxPoint x="30" y="60" />
            </Array>
          </mxGeometry>
        </mxCell>
        <mxCell id="LQaVwW1T5oUffvL5DdlT-67" value="Trabaja con" style="shape=rhombus;perimeter=rhombusPerimeter;whiteSpace=wrap;html=1;align=center;fillColor=#ffe6cc;strokeColor=#d79b00;" parent="1" vertex="1">
          <mxGeometry x="600" y="330" width="120" height="60" as="geometry" />
        </mxCell>
        <mxCell id="LQaVwW1T5oUffvL5DdlT-70" value="(1,n)" style="text;html=1;align=center;verticalAlign=middle;resizable=0;points=[];autosize=1;strokeColor=none;fillColor=none;" parent="1" vertex="1">
          <mxGeometry x="20" y="150" width="50" height="30" as="geometry" />
        </mxCell>
        <mxCell id="LQaVwW1T5oUffvL5DdlT-71" value="(1,n)" style="text;html=1;align=center;verticalAlign=middle;resizable=0;points=[];autosize=1;strokeColor=none;fillColor=none;" parent="1" vertex="1">
          <mxGeometry x="540" y="550" width="50" height="30" as="geometry" />
        </mxCell>
        <mxCell id="LQaVwW1T5oUffvL5DdlT-72" value="N:M" style="text;html=1;align=center;verticalAlign=middle;resizable=0;points=[];autosize=1;strokeColor=none;fillColor=none;" parent="1" vertex="1">
          <mxGeometry x="710" y="345" width="50" height="30" as="geometry" />
        </mxCell>
        <mxCell id="LQaVwW1T5oUffvL5DdlT-75" value="(1,n)" style="text;html=1;align=center;verticalAlign=middle;resizable=0;points=[];autosize=1;strokeColor=none;fillColor=none;" parent="1" vertex="1">
          <mxGeometry x="410" y="550" width="50" height="30" as="geometry" />
        </mxCell>
        <mxCell id="LQaVwW1T5oUffvL5DdlT-77" value="(1,n)" style="text;html=1;align=center;verticalAlign=middle;resizable=0;points=[];autosize=1;strokeColor=none;fillColor=none;" parent="1" vertex="1">
          <mxGeometry x="490" y="310" width="50" height="30" as="geometry" />
        </mxCell>
        <mxCell id="LQaVwW1T5oUffvL5DdlT-83" value="(1.n)" style="text;html=1;align=center;verticalAlign=middle;resizable=0;points=[];autosize=1;strokeColor=none;fillColor=none;" parent="1" vertex="1">
          <mxGeometry x="400" y="170" width="50" height="30" as="geometry" />
        </mxCell>
        <mxCell id="LQaVwW1T5oUffvL5DdlT-84" value="(1,n)" style="text;html=1;align=center;verticalAlign=middle;resizable=0;points=[];autosize=1;strokeColor=none;fillColor=none;" parent="1" vertex="1">
          <mxGeometry x="490" y="238" width="50" height="30" as="geometry" />
        </mxCell>
        <mxCell id="LQaVwW1T5oUffvL5DdlT-85" value="1:1:N" style="text;html=1;align=center;verticalAlign=middle;resizable=0;points=[];autosize=1;strokeColor=none;fillColor=none;" parent="1" vertex="1">
          <mxGeometry x="510" y="150" width="50" height="30" as="geometry" />
        </mxCell>
        <mxCell id="LQaVwW1T5oUffvL5DdlT-86" value="(1,n)" style="text;html=1;align=center;verticalAlign=middle;resizable=0;points=[];autosize=1;strokeColor=none;fillColor=none;" parent="1" vertex="1">
          <mxGeometry x="230" y="260" width="50" height="30" as="geometry" />
        </mxCell>
        <mxCell id="LQaVwW1T5oUffvL5DdlT-87" value="(1,n)" style="text;html=1;align=center;verticalAlign=middle;resizable=0;points=[];autosize=1;strokeColor=none;fillColor=none;" parent="1" vertex="1">
          <mxGeometry x="410" y="260" width="50" height="30" as="geometry" />
        </mxCell>
        <mxCell id="LQaVwW1T5oUffvL5DdlT-88" value="N:M" style="text;html=1;align=center;verticalAlign=middle;resizable=0;points=[];autosize=1;strokeColor=none;fillColor=none;" parent="1" vertex="1">
          <mxGeometry x="325" y="238" width="50" height="30" as="geometry" />
        </mxCell>
        <mxCell id="LQaVwW1T5oUffvL5DdlT-97" style="rounded=0;orthogonalLoop=1;jettySize=auto;html=1;entryX=0.5;entryY=0;entryDx=0;entryDy=0;endArrow=none;endFill=0;fillColor=#f8cecc;strokeColor=#b85450;" parent="1" source="LQaVwW1T5oUffvL5DdlT-96" target="LQaVwW1T5oUffvL5DdlT-2" edge="1">
          <mxGeometry relative="1" as="geometry" />
        </mxCell>
        <mxCell id="LQaVwW1T5oUffvL5DdlT-96" value="IdEmpleado" style="ellipse;whiteSpace=wrap;html=1;align=center;fontStyle=4;fillColor=#d5e8d4;strokeColor=#82b366;" parent="1" vertex="1">
          <mxGeometry x="-470" y="10" width="100" height="40" as="geometry" />
        </mxCell>
        <mxCell id="LQaVwW1T5oUffvL5DdlT-135" style="rounded=0;orthogonalLoop=1;jettySize=auto;html=1;entryX=0.25;entryY=0;entryDx=0;entryDy=0;endArrow=none;endFill=0;fillColor=#d5e8d4;strokeColor=#82b366;" parent="1" source="LQaVwW1T5oUffvL5DdlT-103" target="LQaVwW1T5oUffvL5DdlT-6" edge="1">
          <mxGeometry relative="1" as="geometry" />
        </mxCell>
        <mxCell id="LQaVwW1T5oUffvL5DdlT-103" value="Telefono" style="ellipse;whiteSpace=wrap;html=1;align=center;fillColor=#d5e8d4;strokeColor=#82b366;" parent="1" vertex="1">
          <mxGeometry x="-160" y="80" width="100" height="40" as="geometry" />
        </mxCell>
        <mxCell id="LQaVwW1T5oUffvL5DdlT-137" style="rounded=0;orthogonalLoop=1;jettySize=auto;html=1;entryX=0.25;entryY=0;entryDx=0;entryDy=0;endArrow=none;endFill=0;fillColor=#d5e8d4;strokeColor=#82b366;" parent="1" source="LQaVwW1T5oUffvL5DdlT-104" target="LQaVwW1T5oUffvL5DdlT-6" edge="1">
          <mxGeometry relative="1" as="geometry" />
        </mxCell>
        <mxCell id="LQaVwW1T5oUffvL5DdlT-104" value="Horario" style="ellipse;whiteSpace=wrap;html=1;align=center;fillColor=#d5e8d4;strokeColor=#82b366;" parent="1" vertex="1">
          <mxGeometry x="-140" y="-20" width="100" height="40" as="geometry" />
        </mxCell>
        <mxCell id="LQaVwW1T5oUffvL5DdlT-136" style="rounded=0;orthogonalLoop=1;jettySize=auto;html=1;entryX=0.25;entryY=0;entryDx=0;entryDy=0;endArrow=none;endFill=0;fillColor=#d5e8d4;strokeColor=#82b366;" parent="1" source="LQaVwW1T5oUffvL5DdlT-105" target="LQaVwW1T5oUffvL5DdlT-6" edge="1">
          <mxGeometry relative="1" as="geometry" />
        </mxCell>
        <mxCell id="LQaVwW1T5oUffvL5DdlT-105" value="Dirreccion" style="ellipse;whiteSpace=wrap;html=1;align=center;fillColor=#d5e8d4;strokeColor=#82b366;" parent="1" vertex="1">
          <mxGeometry x="-130" y="40" width="100" height="40" as="geometry" />
        </mxCell>
        <mxCell id="LQaVwW1T5oUffvL5DdlT-133" style="rounded=0;orthogonalLoop=1;jettySize=auto;html=1;entryX=0.5;entryY=1;entryDx=0;entryDy=0;endArrow=none;endFill=0;fillColor=#d5e8d4;strokeColor=#82b366;" parent="1" source="LQaVwW1T5oUffvL5DdlT-106" target="LQaVwW1T5oUffvL5DdlT-4" edge="1">
          <mxGeometry relative="1" as="geometry" />
        </mxCell>
        <mxCell id="LQaVwW1T5oUffvL5DdlT-106" value="Capacidad" style="ellipse;whiteSpace=wrap;html=1;align=center;fillColor=#d5e8d4;strokeColor=#82b366;" parent="1" vertex="1">
          <mxGeometry x="-290" y="340" width="100" height="40" as="geometry" />
        </mxCell>
        <mxCell id="LQaVwW1T5oUffvL5DdlT-131" style="rounded=0;orthogonalLoop=1;jettySize=auto;html=1;entryX=0.5;entryY=1;entryDx=0;entryDy=0;endArrow=none;endFill=0;fillColor=#d5e8d4;strokeColor=#82b366;" parent="1" source="LQaVwW1T5oUffvL5DdlT-107" target="LQaVwW1T5oUffvL5DdlT-4" edge="1">
          <mxGeometry relative="1" as="geometry" />
        </mxCell>
        <mxCell id="LQaVwW1T5oUffvL5DdlT-107" value="Direccion" style="ellipse;whiteSpace=wrap;html=1;align=center;fillColor=#d5e8d4;strokeColor=#82b366;" parent="1" vertex="1">
          <mxGeometry x="-210" y="420" width="100" height="40" as="geometry" />
        </mxCell>
        <mxCell id="LQaVwW1T5oUffvL5DdlT-130" style="rounded=0;orthogonalLoop=1;jettySize=auto;html=1;entryX=0.5;entryY=1;entryDx=0;entryDy=0;endArrow=none;endFill=0;fillColor=#d5e8d4;strokeColor=#82b366;" parent="1" source="LQaVwW1T5oUffvL5DdlT-108" target="LQaVwW1T5oUffvL5DdlT-1" edge="1">
          <mxGeometry relative="1" as="geometry" />
        </mxCell>
        <mxCell id="LQaVwW1T5oUffvL5DdlT-108" value="Precio" style="ellipse;whiteSpace=wrap;html=1;align=center;fillColor=#d5e8d4;strokeColor=#82b366;" parent="1" vertex="1">
          <mxGeometry x="-460" y="420" width="100" height="40" as="geometry" />
        </mxCell>
        <mxCell id="rxMDEduAaEeOasgBpTJK-9" style="rounded=0;orthogonalLoop=1;jettySize=auto;html=1;entryX=1;entryY=0;entryDx=0;entryDy=0;endArrow=none;endFill=0;" parent="1" source="LQaVwW1T5oUffvL5DdlT-109" target="rxMDEduAaEeOasgBpTJK-4" edge="1">
          <mxGeometry relative="1" as="geometry" />
        </mxCell>
        <mxCell id="LQaVwW1T5oUffvL5DdlT-109" value="Stock" style="ellipse;whiteSpace=wrap;html=1;align=center;fillColor=#d5e8d4;strokeColor=#82b366;" parent="1" vertex="1">
          <mxGeometry x="-240" y="-160" width="100" height="40" as="geometry" />
        </mxCell>
        <mxCell id="LQaVwW1T5oUffvL5DdlT-128" style="rounded=0;orthogonalLoop=1;jettySize=auto;html=1;entryX=0.5;entryY=1;entryDx=0;entryDy=0;endArrow=none;endFill=0;fillColor=#d5e8d4;strokeColor=#82b366;" parent="1" source="LQaVwW1T5oUffvL5DdlT-110" target="LQaVwW1T5oUffvL5DdlT-1" edge="1">
          <mxGeometry relative="1" as="geometry" />
        </mxCell>
        <mxCell id="LQaVwW1T5oUffvL5DdlT-110" value="Nombre_Producto" style="ellipse;whiteSpace=wrap;html=1;align=center;fillColor=#d5e8d4;strokeColor=#82b366;" parent="1" vertex="1">
          <mxGeometry x="-550" y="390" width="100" height="40" as="geometry" />
        </mxCell>
        <mxCell id="LQaVwW1T5oUffvL5DdlT-111" value="Telefono" style="ellipse;whiteSpace=wrap;html=1;align=center;fillColor=#d5e8d4;strokeColor=#82b366;" parent="1" vertex="1">
          <mxGeometry x="-280" y="80" width="100" height="40" as="geometry" />
        </mxCell>
        <mxCell id="LQaVwW1T5oUffvL5DdlT-114" style="rounded=0;orthogonalLoop=1;jettySize=auto;html=1;entryX=0.5;entryY=0;entryDx=0;entryDy=0;endArrow=none;endFill=0;fillColor=#d5e8d4;strokeColor=#82b366;" parent="1" source="LQaVwW1T5oUffvL5DdlT-112" target="LQaVwW1T5oUffvL5DdlT-2" edge="1">
          <mxGeometry relative="1" as="geometry" />
        </mxCell>
        <mxCell id="LQaVwW1T5oUffvL5DdlT-112" value="Nombre" style="ellipse;whiteSpace=wrap;html=1;align=center;fillColor=#d5e8d4;strokeColor=#82b366;" parent="1" vertex="1">
          <mxGeometry x="-490" y="60" width="100" height="40" as="geometry" />
        </mxCell>
        <mxCell id="LQaVwW1T5oUffvL5DdlT-115" style="rounded=0;orthogonalLoop=1;jettySize=auto;html=1;entryX=0.5;entryY=0;entryDx=0;entryDy=0;endArrow=none;endFill=0;fillColor=#d5e8d4;strokeColor=#82b366;" parent="1" source="LQaVwW1T5oUffvL5DdlT-113" target="LQaVwW1T5oUffvL5DdlT-2" edge="1">
          <mxGeometry relative="1" as="geometry" />
        </mxCell>
        <mxCell id="LQaVwW1T5oUffvL5DdlT-113" value="Dirección" style="ellipse;whiteSpace=wrap;html=1;align=center;fillColor=#d5e8d4;strokeColor=#82b366;" parent="1" vertex="1">
          <mxGeometry x="-400" y="-20" width="100" height="40" as="geometry" />
        </mxCell>
        <mxCell id="LQaVwW1T5oUffvL5DdlT-116" style="rounded=0;orthogonalLoop=1;jettySize=auto;html=1;entryX=0.5;entryY=0;entryDx=0;entryDy=0;endArrow=none;endFill=0;fillColor=#d5e8d4;strokeColor=#82b366;" parent="1" source="LQaVwW1T5oUffvL5DdlT-111" target="LQaVwW1T5oUffvL5DdlT-2" edge="1">
          <mxGeometry relative="1" as="geometry" />
        </mxCell>
        <mxCell id="LQaVwW1T5oUffvL5DdlT-186" style="rounded=0;orthogonalLoop=1;jettySize=auto;html=1;entryX=0.5;entryY=1;entryDx=0;entryDy=0;endArrow=none;endFill=0;fillColor=#f8cecc;strokeColor=#b85450;" parent="1" source="LQaVwW1T5oUffvL5DdlT-118" target="LQaVwW1T5oUffvL5DdlT-8" edge="1">
          <mxGeometry relative="1" as="geometry" />
        </mxCell>
        <mxCell id="LQaVwW1T5oUffvL5DdlT-118" value="IdProveedor" style="ellipse;whiteSpace=wrap;html=1;align=center;fontStyle=4;fillColor=#d5e8d4;strokeColor=#82b366;" parent="1" vertex="1">
          <mxGeometry x="450" y="670" width="100" height="40" as="geometry" />
        </mxCell>
        <mxCell id="LQaVwW1T5oUffvL5DdlT-180" style="rounded=0;orthogonalLoop=1;jettySize=auto;html=1;entryX=0.75;entryY=0;entryDx=0;entryDy=0;endArrow=none;endFill=0;fillColor=#f8cecc;strokeColor=#b85450;" parent="1" source="LQaVwW1T5oUffvL5DdlT-119" target="LQaVwW1T5oUffvL5DdlT-10" edge="1">
          <mxGeometry relative="1" as="geometry" />
        </mxCell>
        <mxCell id="LQaVwW1T5oUffvL5DdlT-119" value="IdCoche" style="ellipse;whiteSpace=wrap;html=1;align=center;fontStyle=4;fillColor=#d5e8d4;strokeColor=#82b366;" parent="1" vertex="1">
          <mxGeometry x="220" y="330" width="100" height="40" as="geometry" />
        </mxCell>
        <mxCell id="LQaVwW1T5oUffvL5DdlT-165" style="rounded=0;orthogonalLoop=1;jettySize=auto;html=1;entryX=1;entryY=0.5;entryDx=0;entryDy=0;endArrow=none;endFill=0;fillColor=#f8cecc;strokeColor=#b85450;" parent="1" source="LQaVwW1T5oUffvL5DdlT-121" target="LQaVwW1T5oUffvL5DdlT-7" edge="1">
          <mxGeometry relative="1" as="geometry" />
        </mxCell>
        <mxCell id="LQaVwW1T5oUffvL5DdlT-121" value="DNI" style="ellipse;whiteSpace=wrap;html=1;align=center;fontStyle=4;fillColor=#d5e8d4;strokeColor=#82b366;" parent="1" vertex="1">
          <mxGeometry x="550" y="210" width="100" height="40" as="geometry" />
        </mxCell>
        <mxCell id="LQaVwW1T5oUffvL5DdlT-161" style="rounded=0;orthogonalLoop=1;jettySize=auto;html=1;entryX=0.5;entryY=0;entryDx=0;entryDy=0;endArrow=none;endFill=0;fillColor=#f8cecc;strokeColor=#b85450;" parent="1" source="LQaVwW1T5oUffvL5DdlT-122" target="LQaVwW1T5oUffvL5DdlT-3" edge="1">
          <mxGeometry relative="1" as="geometry" />
        </mxCell>
        <mxCell id="LQaVwW1T5oUffvL5DdlT-122" value="Id_Servicio" style="ellipse;whiteSpace=wrap;html=1;align=center;fontStyle=4;fillColor=#d5e8d4;strokeColor=#82b366;" parent="1" vertex="1">
          <mxGeometry x="165" y="90" width="100" height="40" as="geometry" />
        </mxCell>
        <mxCell id="LQaVwW1T5oUffvL5DdlT-134" style="rounded=0;orthogonalLoop=1;jettySize=auto;html=1;entryX=1;entryY=0;entryDx=0;entryDy=0;endArrow=none;endFill=0;fillColor=#f8cecc;strokeColor=#b85450;" parent="1" source="LQaVwW1T5oUffvL5DdlT-124" target="LQaVwW1T5oUffvL5DdlT-6" edge="1">
          <mxGeometry relative="1" as="geometry" />
        </mxCell>
        <mxCell id="LQaVwW1T5oUffvL5DdlT-124" value="IdTienda" style="ellipse;whiteSpace=wrap;html=1;align=center;fontStyle=4;fillColor=#d5e8d4;strokeColor=#82b366;" parent="1" vertex="1">
          <mxGeometry x="40" y="70" width="100" height="40" as="geometry" />
        </mxCell>
        <mxCell id="LQaVwW1T5oUffvL5DdlT-132" style="rounded=0;orthogonalLoop=1;jettySize=auto;html=1;endArrow=none;endFill=0;fillColor=#f8cecc;strokeColor=#b85450;" parent="1" source="LQaVwW1T5oUffvL5DdlT-125" edge="1">
          <mxGeometry relative="1" as="geometry">
            <mxPoint x="-130" y="310" as="targetPoint" />
          </mxGeometry>
        </mxCell>
        <mxCell id="LQaVwW1T5oUffvL5DdlT-125" value="IdTaller" style="ellipse;whiteSpace=wrap;html=1;align=center;fontStyle=4;fillColor=#d5e8d4;strokeColor=#82b366;" parent="1" vertex="1">
          <mxGeometry x="-260" y="380" width="100" height="40" as="geometry" />
        </mxCell>
        <mxCell id="LQaVwW1T5oUffvL5DdlT-127" style="rounded=0;orthogonalLoop=1;jettySize=auto;html=1;entryX=0.5;entryY=1;entryDx=0;entryDy=0;endArrow=none;endFill=0;fillColor=#f8cecc;strokeColor=#b85450;" parent="1" source="LQaVwW1T5oUffvL5DdlT-126" target="LQaVwW1T5oUffvL5DdlT-1" edge="1">
          <mxGeometry relative="1" as="geometry" />
        </mxCell>
        <mxCell id="LQaVwW1T5oUffvL5DdlT-126" value="IdInventario" style="ellipse;whiteSpace=wrap;html=1;align=center;fontStyle=4;fillColor=#d5e8d4;strokeColor=#82b366;" parent="1" vertex="1">
          <mxGeometry x="-620" y="360" width="100" height="40" as="geometry" />
        </mxCell>
        <mxCell id="LQaVwW1T5oUffvL5DdlT-188" style="rounded=0;orthogonalLoop=1;jettySize=auto;html=1;endArrow=none;endFill=0;entryX=0.5;entryY=1;entryDx=0;entryDy=0;fillColor=#d5e8d4;strokeColor=#82b366;" parent="1" source="LQaVwW1T5oUffvL5DdlT-139" target="LQaVwW1T5oUffvL5DdlT-8" edge="1">
          <mxGeometry relative="1" as="geometry" />
        </mxCell>
        <mxCell id="LQaVwW1T5oUffvL5DdlT-139" value="Direccion" style="ellipse;whiteSpace=wrap;html=1;align=center;fillColor=#d5e8d4;strokeColor=#82b366;" parent="1" vertex="1">
          <mxGeometry x="590" y="610" width="100" height="40" as="geometry" />
        </mxCell>
        <mxCell id="LQaVwW1T5oUffvL5DdlT-187" style="rounded=0;orthogonalLoop=1;jettySize=auto;html=1;entryX=0.5;entryY=1;entryDx=0;entryDy=0;endArrow=none;endFill=0;fillColor=#d5e8d4;strokeColor=#82b366;" parent="1" source="LQaVwW1T5oUffvL5DdlT-140" target="LQaVwW1T5oUffvL5DdlT-8" edge="1">
          <mxGeometry relative="1" as="geometry" />
        </mxCell>
        <mxCell id="LQaVwW1T5oUffvL5DdlT-140" value="Email" style="ellipse;whiteSpace=wrap;html=1;align=center;fillColor=#d5e8d4;strokeColor=#82b366;" parent="1" vertex="1">
          <mxGeometry x="540" y="650" width="100" height="40" as="geometry" />
        </mxCell>
        <mxCell id="LQaVwW1T5oUffvL5DdlT-184" style="rounded=0;orthogonalLoop=1;jettySize=auto;html=1;entryX=0.5;entryY=1;entryDx=0;entryDy=0;endArrow=none;endFill=0;fillColor=#d5e8d4;strokeColor=#82b366;" parent="1" source="LQaVwW1T5oUffvL5DdlT-141" target="LQaVwW1T5oUffvL5DdlT-8" edge="1">
          <mxGeometry relative="1" as="geometry" />
        </mxCell>
        <mxCell id="LQaVwW1T5oUffvL5DdlT-141" value="Telefono" style="ellipse;whiteSpace=wrap;html=1;align=center;fillColor=#d5e8d4;strokeColor=#82b366;" parent="1" vertex="1">
          <mxGeometry x="310" y="610" width="100" height="40" as="geometry" />
        </mxCell>
        <mxCell id="LQaVwW1T5oUffvL5DdlT-185" style="rounded=0;orthogonalLoop=1;jettySize=auto;html=1;entryX=0.5;entryY=1;entryDx=0;entryDy=0;endArrow=none;endFill=0;fillColor=#d5e8d4;strokeColor=#82b366;" parent="1" source="LQaVwW1T5oUffvL5DdlT-142" target="LQaVwW1T5oUffvL5DdlT-8" edge="1">
          <mxGeometry relative="1" as="geometry" />
        </mxCell>
        <mxCell id="LQaVwW1T5oUffvL5DdlT-142" value="Nombre" style="ellipse;whiteSpace=wrap;html=1;align=center;fillColor=#d5e8d4;strokeColor=#82b366;" parent="1" vertex="1">
          <mxGeometry x="360" y="650" width="100" height="40" as="geometry" />
        </mxCell>
        <mxCell id="LQaVwW1T5oUffvL5DdlT-179" style="rounded=0;orthogonalLoop=1;jettySize=auto;html=1;entryX=1;entryY=1;entryDx=0;entryDy=0;endArrow=none;endFill=0;fillColor=#d5e8d4;strokeColor=#82b366;" parent="1" source="LQaVwW1T5oUffvL5DdlT-143" target="LQaVwW1T5oUffvL5DdlT-10" edge="1">
          <mxGeometry relative="1" as="geometry" />
        </mxCell>
        <mxCell id="LQaVwW1T5oUffvL5DdlT-143" value="Color" style="ellipse;whiteSpace=wrap;html=1;align=center;fillColor=#d5e8d4;strokeColor=#82b366;" parent="1" vertex="1">
          <mxGeometry x="350" y="500" width="100" height="40" as="geometry" />
        </mxCell>
        <mxCell id="LQaVwW1T5oUffvL5DdlT-183" style="rounded=0;orthogonalLoop=1;jettySize=auto;html=1;entryX=0.75;entryY=0;entryDx=0;entryDy=0;endArrow=none;endFill=0;fillColor=#d5e8d4;strokeColor=#82b366;" parent="1" source="LQaVwW1T5oUffvL5DdlT-144" target="LQaVwW1T5oUffvL5DdlT-10" edge="1">
          <mxGeometry relative="1" as="geometry" />
        </mxCell>
        <mxCell id="LQaVwW1T5oUffvL5DdlT-144" value="Año" style="ellipse;whiteSpace=wrap;html=1;align=center;fillColor=#d5e8d4;strokeColor=#82b366;" parent="1" vertex="1">
          <mxGeometry x="375" y="410" width="100" height="40" as="geometry" />
        </mxCell>
        <mxCell id="LQaVwW1T5oUffvL5DdlT-181" style="rounded=0;orthogonalLoop=1;jettySize=auto;html=1;entryX=0.75;entryY=0;entryDx=0;entryDy=0;endArrow=none;endFill=0;fillColor=#d5e8d4;strokeColor=#82b366;" parent="1" source="LQaVwW1T5oUffvL5DdlT-145" target="LQaVwW1T5oUffvL5DdlT-10" edge="1">
          <mxGeometry relative="1" as="geometry" />
        </mxCell>
        <mxCell id="LQaVwW1T5oUffvL5DdlT-145" value="Modelo" style="ellipse;whiteSpace=wrap;html=1;align=center;fillColor=#d5e8d4;strokeColor=#82b366;" parent="1" vertex="1">
          <mxGeometry x="320" y="330" width="100" height="40" as="geometry" />
        </mxCell>
        <mxCell id="LQaVwW1T5oUffvL5DdlT-182" style="rounded=0;orthogonalLoop=1;jettySize=auto;html=1;entryX=0.75;entryY=0;entryDx=0;entryDy=0;endArrow=none;endFill=0;fillColor=#d5e8d4;strokeColor=#82b366;" parent="1" source="LQaVwW1T5oUffvL5DdlT-146" target="LQaVwW1T5oUffvL5DdlT-10" edge="1">
          <mxGeometry relative="1" as="geometry" />
        </mxCell>
        <mxCell id="LQaVwW1T5oUffvL5DdlT-146" value="Marca" style="ellipse;whiteSpace=wrap;html=1;align=center;fillColor=#d5e8d4;strokeColor=#82b366;" parent="1" vertex="1">
          <mxGeometry x="360" y="370" width="100" height="40" as="geometry" />
        </mxCell>
        <mxCell id="LQaVwW1T5oUffvL5DdlT-167" style="rounded=0;orthogonalLoop=1;jettySize=auto;html=1;entryX=1;entryY=0.5;entryDx=0;entryDy=0;endArrow=none;endFill=0;fillColor=#d5e8d4;strokeColor=#82b366;" parent="1" source="LQaVwW1T5oUffvL5DdlT-149" target="LQaVwW1T5oUffvL5DdlT-7" edge="1">
          <mxGeometry relative="1" as="geometry" />
        </mxCell>
        <mxCell id="LQaVwW1T5oUffvL5DdlT-149" value="Direccion" style="ellipse;whiteSpace=wrap;html=1;align=center;fillColor=#d5e8d4;strokeColor=#82b366;" parent="1" vertex="1">
          <mxGeometry x="530" y="370" width="100" height="40" as="geometry" />
        </mxCell>
        <mxCell id="LQaVwW1T5oUffvL5DdlT-166" style="rounded=0;orthogonalLoop=1;jettySize=auto;html=1;entryX=1;entryY=0.5;entryDx=0;entryDy=0;endArrow=none;endFill=0;fillColor=#d5e8d4;strokeColor=#82b366;" parent="1" source="LQaVwW1T5oUffvL5DdlT-150" target="LQaVwW1T5oUffvL5DdlT-7" edge="1">
          <mxGeometry relative="1" as="geometry" />
        </mxCell>
        <mxCell id="LQaVwW1T5oUffvL5DdlT-150" value="Nombre" style="ellipse;whiteSpace=wrap;html=1;align=center;fillColor=#d5e8d4;strokeColor=#82b366;" parent="1" vertex="1">
          <mxGeometry x="580" y="300" width="70" height="35" as="geometry" />
        </mxCell>
        <mxCell id="LQaVwW1T5oUffvL5DdlT-164" style="rounded=0;orthogonalLoop=1;jettySize=auto;html=1;endArrow=none;endFill=0;entryX=0.5;entryY=0;entryDx=0;entryDy=0;fillColor=#d5e8d4;strokeColor=#82b366;" parent="1" source="LQaVwW1T5oUffvL5DdlT-151" target="LQaVwW1T5oUffvL5DdlT-3" edge="1">
          <mxGeometry relative="1" as="geometry" />
        </mxCell>
        <mxCell id="LQaVwW1T5oUffvL5DdlT-151" value="Duracion" style="ellipse;whiteSpace=wrap;html=1;align=center;fillColor=#d5e8d4;strokeColor=#82b366;" parent="1" vertex="1">
          <mxGeometry x="420" y="100" width="100" height="40" as="geometry" />
        </mxCell>
        <mxCell id="LQaVwW1T5oUffvL5DdlT-162" style="rounded=0;orthogonalLoop=1;jettySize=auto;html=1;endArrow=none;endFill=0;entryX=0.5;entryY=0;entryDx=0;entryDy=0;fillColor=#d5e8d4;strokeColor=#82b366;" parent="1" source="LQaVwW1T5oUffvL5DdlT-152" target="LQaVwW1T5oUffvL5DdlT-3" edge="1">
          <mxGeometry relative="1" as="geometry" />
        </mxCell>
        <mxCell id="LQaVwW1T5oUffvL5DdlT-152" value="Tipo_Servicio" style="ellipse;whiteSpace=wrap;html=1;align=center;fillColor=#d5e8d4;strokeColor=#82b366;" parent="1" vertex="1">
          <mxGeometry x="250" y="70" width="100" height="40" as="geometry" />
        </mxCell>
        <mxCell id="LQaVwW1T5oUffvL5DdlT-163" style="rounded=0;orthogonalLoop=1;jettySize=auto;html=1;endArrow=none;endFill=0;fillColor=#d5e8d4;strokeColor=#82b366;" parent="1" source="LQaVwW1T5oUffvL5DdlT-153" edge="1">
          <mxGeometry relative="1" as="geometry">
            <mxPoint x="350" y="180" as="targetPoint" />
          </mxGeometry>
        </mxCell>
        <mxCell id="LQaVwW1T5oUffvL5DdlT-153" value="Precio_Servicio" style="ellipse;whiteSpace=wrap;html=1;align=center;fillColor=#d5e8d4;strokeColor=#82b366;" parent="1" vertex="1">
          <mxGeometry x="350" y="70" width="100" height="40" as="geometry" />
        </mxCell>
        <mxCell id="LQaVwW1T5oUffvL5DdlT-160" style="rounded=0;orthogonalLoop=1;jettySize=auto;html=1;entryX=0.5;entryY=1;entryDx=0;entryDy=0;endArrow=none;endFill=0;fillColor=#d5e8d4;strokeColor=#82b366;" parent="1" source="LQaVwW1T5oUffvL5DdlT-154" target="LQaVwW1T5oUffvL5DdlT-4" edge="1">
          <mxGeometry relative="1" as="geometry" />
        </mxCell>
        <mxCell id="LQaVwW1T5oUffvL5DdlT-154" value="Nombre" style="ellipse;whiteSpace=wrap;html=1;align=center;fillColor=#d5e8d4;strokeColor=#82b366;" parent="1" vertex="1">
          <mxGeometry x="-310" y="300" width="100" height="40" as="geometry" />
        </mxCell>
        <mxCell id="rxMDEduAaEeOasgBpTJK-3" value="(1,n)" style="text;html=1;align=center;verticalAlign=middle;resizable=0;points=[];autosize=1;strokeColor=none;fillColor=none;" parent="1" vertex="1">
          <mxGeometry x="-540" y="260" width="50" height="30" as="geometry" />
        </mxCell>
        <mxCell id="rxMDEduAaEeOasgBpTJK-6" style="edgeStyle=orthogonalEdgeStyle;rounded=0;orthogonalLoop=1;jettySize=auto;html=1;entryX=0.25;entryY=0;entryDx=0;entryDy=0;" parent="1" source="rxMDEduAaEeOasgBpTJK-4" target="LQaVwW1T5oUffvL5DdlT-6" edge="1">
          <mxGeometry relative="1" as="geometry" />
        </mxCell>
        <mxCell id="rxMDEduAaEeOasgBpTJK-4" value="Se guardan" style="shape=rhombus;perimeter=rhombusPerimeter;whiteSpace=wrap;html=1;align=center;" parent="1" vertex="1">
          <mxGeometry x="-330" y="-110" width="120" height="60" as="geometry" />
        </mxCell>
        <mxCell id="rxMDEduAaEeOasgBpTJK-7" value="N:M" style="text;html=1;align=center;verticalAlign=middle;resizable=0;points=[];autosize=1;strokeColor=none;fillColor=none;" parent="1" vertex="1">
          <mxGeometry x="-295" y="-140" width="50" height="30" as="geometry" />
        </mxCell>
        <mxCell id="rxMDEduAaEeOasgBpTJK-12" value="(1,1)" style="text;html=1;align=center;verticalAlign=middle;resizable=0;points=[];autosize=1;strokeColor=none;fillColor=none;" parent="1" vertex="1">
          <mxGeometry x="-295" y="248" width="50" height="30" as="geometry" />
        </mxCell>
        <mxCell id="rxMDEduAaEeOasgBpTJK-20" style="edgeStyle=orthogonalEdgeStyle;rounded=0;orthogonalLoop=1;jettySize=auto;html=1;entryX=0;entryY=1;entryDx=0;entryDy=0;" parent="1" source="rxMDEduAaEeOasgBpTJK-17" target="LQaVwW1T5oUffvL5DdlT-19" edge="1">
          <mxGeometry relative="1" as="geometry" />
        </mxCell>
        <mxCell id="rxMDEduAaEeOasgBpTJK-17" value="Cantidad" style="ellipse;whiteSpace=wrap;html=1;align=center;" parent="1" vertex="1">
          <mxGeometry x="-20" y="620" width="100" height="40" as="geometry" />
        </mxCell>
        <mxCell id="rxMDEduAaEeOasgBpTJK-19" style="edgeStyle=orthogonalEdgeStyle;rounded=0;orthogonalLoop=1;jettySize=auto;html=1;entryX=0.5;entryY=1;entryDx=0;entryDy=0;" parent="1" source="rxMDEduAaEeOasgBpTJK-18" target="LQaVwW1T5oUffvL5DdlT-19" edge="1">
          <mxGeometry relative="1" as="geometry" />
        </mxCell>
        <mxCell id="rxMDEduAaEeOasgBpTJK-18" value="Fecha" style="ellipse;whiteSpace=wrap;html=1;align=center;" parent="1" vertex="1">
          <mxGeometry x="-60" y="670" width="100" height="40" as="geometry" />
        </mxCell>
        <mxCell id="rxMDEduAaEeOasgBpTJK-21" value="Coche Alquiler" style="whiteSpace=wrap;html=1;align=center;" parent="1" vertex="1">
          <mxGeometry x="610" y="-110" width="100" height="40" as="geometry" />
        </mxCell>
        <mxCell id="rxMDEduAaEeOasgBpTJK-22" value="Coche&amp;nbsp;&lt;div&gt;Segunda&amp;nbsp;&lt;span style=&quot;background-color: initial;&quot;&gt;Mano&lt;/span&gt;&lt;/div&gt;" style="whiteSpace=wrap;html=1;align=center;" parent="1" vertex="1">
          <mxGeometry x="-35" y="430" width="100" height="40" as="geometry" />
        </mxCell>
      </root>
    </mxGraphModel>
  </diagram>
</mxfile>
